<svg xmlns="http://www.w3.org/2000/svg" viewBox="0 0 594.4 338.9">
<style type="text/css">
	.st0{fill:#F9F878;stroke:#000000;stroke-miterlimit:10;}
	.st1{fill: #c7e3ff;}
	.st2{fill:#F9F878;}
	.st3{fill:#13D454;stroke:#000000;stroke-miterlimit:10;}
</style>
	<path d="M355.3,289.5c-5.5-5.9-19.7-24.2-25.3-30.1l-10.1,9.4c7.3,5.6,15.2,10.2,22.9,15.3C350.6,289.4,355.3,289.5,355.3,289.5"/>
	<path d="M585.4,240.9c2.8-16-7.3-44.5-20.7-58c-10.9-10.4-25.8-15.4-40.1-20.1c-3.3-1.1-7.8-5.4-14-5.7 c-10.9-0.5-78.4-20.4-201.9-24.1c-9.1-0.3-53.8-4.3-81.7-10.1c-19.9-4.1-67.6-13.8-67.6-13.8c-41.8-9.8-70.9-19-94.4-23.3 c-5.6-1.1-11.2-2.1-16-4.8c0,13.2,7.8,3.6,14.4,24c33.4,22.1,76.5,34.8,110,53.4c0,0,88.1,83.3,114.9,92.6 c-3.2,6.1-7.5,15.7-9.8,20.3c-0.4,0.8-0.8,1.5-1.2,2.3c7.7,9.9,27-9.9,33.4-17.2c5.5,1.5,1.9,22.6,1.9,22.6s5.2,0.5,6.3,0.5 s8.6-2.3,10.1-3.8c1.4-1.4,127.1,16,127.1,16s46.5-28.7,49-30.6c2.1-1.7,5.3-0.7,6.1,1.8s2.4,6.2,6.7,11.5 c12.4,15,28.7,18.5,31.3,16.9C574.9,275.5,582.6,256.9,585.4,240.9L585.4,240.9z"/>
	<path class="st0" d="M390.2,306.9c-1.5-15-25.8-22.1-37.7-21c1.4,1.1,2.8,2.5,3.9,3.9c0-0.6-0.1-1.1-0.2-1.7 c4.6,1.9,33,13.5,31.7,20.6c-0.5-0.3-0.9-0.6-1.4-0.9c0.4,1,0.9,2,1.3,2.9C389.3,310,390.5,308.5,390.2,306.9L390.2,306.9z"/>
	<path class="st0" d="M384.3,305.9c-0.4-0.9-1.1-1.6-2-2c-0.1,1-0.3,1.6-0.7,2.1c-0.2,0.7-0.5,1.2-0.9,1.7c-0.5,1.1-1.2,2.4-1.7,3.7 c-0.4,1.3-0.9,2.6-1.2,4c-0.1,0.8-0.2,1.5-0.3,2.3v0.3v0.2c0.1,0.2,0.1,0.2,0.2,0.3c0,0.1,0.1,0.1,0.1,0.2c0,0,0.1,0.1,0.1,0.2 s-0.1,0.1-0.1,0.1s-0.1,0-0.1-0.1v-0.1h0.1c0-0.1,0-0.1-0.1-0.2s-0.2,0-0.3,0c-0.2,0-0.3,0.1-0.4,0.3v0.4c0,0.2,0.2,0.3,0.3,0.4 c0.2,0.2,0.5,0.2,0.8,0.2c0.5-0.1,0.9-0.3,1.1-0.4c0.1,0,0.2-0.1,0.3-0.2l0.2-0.2c0.7-0.4,1.3-1,1.8-1.6c1.1-1.2,2-2.6,2.5-4.1 c0.2-0.8,0.5-1.5,0.7-2.3c0.1-0.9,0.2-1.7,0.2-2.6C384.8,307.7,384.7,306.7,384.3,305.9L384.3,305.9z"/>
	<path class="st0" d="M348.2,288c-8.2-3.5-30.9,2.8-19.2,12.8c-0.8-7.5,7.1-9,14.2-9c-1.4,1.3-3.1,2.7-4.9,3.5 c5.2,0.6,9.9-2.2,13.2-6L348.2,288L348.2,288z"/>
	<path class="st0" d="M367,293.8c-2.3,1.4,2.3,14.6,2.4,18c0.1,7.4-2.4,14.5-7,20.3C381.2,329.9,380.2,302.2,367,293.8z"/>
	<path d="M319.6,295.4c-0.5,0.4-0.9,0.8-1.4,1.2c-2.6-3.3-9.4-6.9-12.2-9.5c-2.5-2.2-10.3-11.6-14.9-12.6c-0.2-0.2-0.3-0.5-0.5-0.7 c-0.2,0.2-0.3,0.4-0.4,0.6c-0.3,0-0.6,0.1-0.9,0.2c-0.8-0.1-1.7,0-2.5,0.2c1.1,0.1,2.2,0.6,3.3,1.3c1.5,6.9,22.9,19.9,28.1,22.2 c0.5-0.5,0.8-0.9,0.8-1.4C319.3,296.5,319.5,295.9,319.6,295.4L319.6,295.4z"/>
	<path class="st0" d="M364.8,323.4c-0.5-0.5-1.1-0.9-1.6-1.4c1.9-12.3-36.2-23.5-42.5-25.1c-0.2,3.5,1.3,7.7,4.8,8.9 c13.6,7.2,13,12.1,15.4,28.2c0.7-6.6,2.2-18-1.4-24.2c-0.4-0.7-1.2-1.4-2.1-2.1c11.5,4.6,24.6,11.6,19.2,18c0.3,0,0.6,0.1,0.9,0.1 c-2.2,3.1-3.8,6.7-4.4,10.4c-1.9,0-3.9,0.1-5.9,0.2c2.5,0.5,4.4,0.5,5.8,0.2v0.1l0.2-0.1c4.8-1.2,4.5-6.6,10.9-12.5l0.3-0.3 C364.6,323.7,364.7,323.5,364.8,323.4L364.8,323.4z"/>
	<path class="st0" d="M320.2,299.9c-11.6-6.9-26.2-4-38.5-0.9c0.4,0.7,0.7,1.4,1,2.1c-2.4-0.5-7.2,1.8-15.7,7.8 c4.1-1,8.3-2.1,12.4-3.2c-1.4,8.3-1.6,16.2,0,24.7c1-1.2,1.9-3,1.8-4.5c-0.1,0.3-0.3,0.5-0.4,0.8c1.8-9.8,4.3-18,4-22.3 C296.5,301.3,308.4,298.9,320.2,299.9L320.2,299.9z M284.3,304.5c-1,1-1.8,1-2.4,0.5C282.7,304.8,283.5,304.6,284.3,304.5 L284.3,304.5z"/>
	<path class="st1" d="M546.7,239.6c-7.8,8.2-4.9,30.1,7.2,20.3c5.6-4.6,3.2-14.6-1.2-20.6C550.7,236.6,548.3,237.9,546.7,239.6
		L546.7,239.6z"/>
	<path class="st0" d="M543.7,283.9c-0.3,0.6,8.4,7,8.8,4.8c0,2.3-2.2,29.2-2.2,29.2s-2.9-3.4-4.4-5.9c-4-6.7-3.7-17.1-3.6-19.8 C542.3,290.7,542.8,285.1,543.7,283.9L543.7,283.9z"/>
	<path class="st0" d="M558.4,283.7c1.4,3.5,2.7,7,3.2,10.9c0.8,5.9,0.3,10.5-0.7,16.1c-3.7,20-10.3,17.9-10.8,17.3 c-0.3-0.3-0.5-1.8-0.5-1.8s1.1-34.9,1.4-38.4C551.1,291.2,559.3,287.3,558.4,283.7L558.4,283.7z"/>
	<path class="st2" d="M564.5,272.9l-0.8,2.1l-0.6,2.1c-0.2,0.7-0.2,1.5-0.3,2.2v1.1c0,0.4,0,0.7,0.1,1.1c0.2,2.9,2,5.3,4.6,5.9 c2.6,0.7,5.4,0.1,7.9-1.1s4.6-3.1,6.4-5.2c3.6-4.3,5.7-9.7,6.7-15.3s1-11.4,0.4-17.1v-0.5c0-0.2-0.1-0.3-0.1-0.5l-0.2-0.9 c-0.1-0.3-0.2-0.5-0.3-0.8s-0.2-0.5-0.3-0.8c-0.4-1-1.1-1.7-1.8-2.2c-0.8-0.5-1.7-0.8-2.7-0.8c-1-0.1-2.2,0.2-3.3,0.5 c-1.1,0.4-2.2,0.9-3.1,1.6c-1,0.7-1.8,1.5-2.5,2.5c-0.7,0.9-1.2,1.9-1.5,3c-0.1,0.3-0.2,0.5-0.2,0.8s-0.1,0.5-0.1,0.8 c0,0.5-0.1,1.1,0,1.6c0.1,1.1,0.5,2.2,0.9,3.2c0.3,0.5,0.5,1.1,0.9,1.6s0.7,1,1.1,1.5l1.2,1.5l1.4,1.4c0.5,0.5,1,0.9,1.5,1.3 l0.4,0.3l0.2,0.2c0.1,0,0,0,0,0s-0.1,0-0.1-0.1c-0.1-0.1-0.4-0.2-0.7-0.3s-0.7,0-0.9,0c-0.5,0.1-0.6,0.3-0.6,0.3s0.1-0.1,0.2-0.3 c0.2-0.3,0.5-0.9,0.7-1.4c0.4-1.1,0.8-2.4,1.1-3.8c0.6-2.7,0.9-5.5,1.1-8.3c0.8-11.4-0.9-23.1-5.2-33.6s-11.4-19.9-20.1-27.4 c-4.4-3.8-9.2-6.9-14.4-9.5s-10.7-4.4-16.4-5.3c-1.4-0.3-2.9-0.3-4.3-0.5c-0.4,0-0.7-0.1-1.1-0.1h-1c-0.7,0-1.3,0.1-1.9,0.2 c-1.2,0.3-2.2,0.9-2.7,1.9c-0.5,0.9-0.4,2.2,0,3.4c1,2.4,3.5,4.3,6.2,5.2c1.4,0.5,2.8,0.8,4.3,1c1.5,0.1,3,0.1,4.5,0 c-2.9,0.6-6,0.8-9,0.1s-6-2.4-7.6-5.4c-0.4-0.8-0.7-1.6-0.8-2.5s0-1.9,0.4-2.7c0.4-0.9,1-1.7,1.7-2.3s1.5-1,2.4-1.3 c1.6-0.6,3.4-0.7,4.9-0.6s3.1,0,4.6,0.2c6.1,0.5,12.2,2.2,17.9,4.6s11,5.7,15.9,9.5s9.3,8.2,13.1,13.1s7.1,10.2,9.6,16 s4.1,11.8,5.1,18c1,6.1,1.3,12.4,0.9,18.6c-0.2,3.1-0.6,6.2-1.4,9.4c-0.4,1.6-0.8,3.2-1.5,4.8c-0.3,0.8-0.7,1.7-1.3,2.6 c-0.3,0.5-0.6,0.9-1.2,1.4c-0.5,0.5-1.3,1.1-2.5,1.4c-0.6,0.2-1.3,0.2-2,0.1s-1.2-0.4-1.7-0.7l-0.3-0.2l-0.2-0.2l-0.2-0.2 l-0.5-0.4c-0.6-0.5-1.2-1-1.8-1.6l-1.7-1.8c-0.6-0.6-1.1-1.3-1.6-2s-1-1.4-1.5-2.2l-1.2-2.4c-0.7-1.7-1.2-3.5-1.3-5.4 c-0.1-0.9,0-1.9,0-2.9c0.1-0.5,0.2-0.9,0.3-1.4s0.2-0.9,0.4-1.4c0.5-1.8,1.5-3.5,2.6-4.9c1.1-1.5,2.5-2.7,4-3.7s3.1-1.8,4.8-2.4 c1.7-0.5,3.6-0.9,5.5-0.7c1.9,0.1,4,0.7,5.7,2c1.7,1.2,3,2.9,3.7,4.7c0.2,0.4,0.3,0.9,0.5,1.3c0.1,0.4,0.3,0.9,0.3,1.3l0.2,1.3 c0,0.2,0.1,0.5,0.1,0.7v0.6c0.4,6.2,0.2,12.4-1.3,18.5s-4.2,12-8.6,16.6c-2.2,2.3-4.9,4.2-7.9,5.4c-1.5,0.6-3.1,1-4.7,1.1 s-3.3-0.1-4.9-0.7s-3-1.7-3.8-3.1c-0.1-0.2-0.2-0.3-0.3-0.5l-0.2-0.6c-0.1-0.4-0.3-0.7-0.4-1.1l-0.2-1.2V281c0-0.4,0-0.8,0.1-1.2 l0.1-1.1c0.2-0.7,0.4-1.5,0.6-2.2c0.3-0.7,0.5-1.4,0.8-2.1L564.5,272.9L564.5,272.9z"/>
	<path d="M544.5,251.3c0.1,0.3-0.4-1-0.1-0.1c0.2,0.5,0.3,1,0.5,1.5c0.1,0.2,0.1,0.5,0.2,0.7c-0.2-1-0.1,0.1,0,0.3 c0.1,0.7,0.2-0.7,0,0c0.1-0.3,0.3-0.6,0.5-0.8c-0.3,0.3-0.2,0.2,0.2-0.1c-1.7,1-2.3,3.2-1.3,4.9c1,1.7,3.3,2.3,4.9,1.3 c4.1-2.5,3.1-7.6,1.4-11.2c-0.8-1.8-3.4-2.2-4.9-1.3C544,247.5,543.7,249.6,544.5,251.3L544.5,251.3z"/>
	<path class="st0" d="M480.9,205.8c5.2-6.9-5.8-7.8-7.1-13c-0.4-1.6-2.1-3.6-4.3-5.7c0.5-0.6,1-1.2,0.9-1.7 c-0.2-1.4-3.1-3.4-4.1-4.4c-2-2.2-3-4.7-1.6-7.3c0.5-1,1.6-1.8,1.9-2.9c0.4-1.7,0.6-0.1-0.1-1.6c-0.4-0.8-1.9-1.8-2.6-2.5 c-1-1.1-1.4-2.3-1.3-3.4c-6.5-2.4-10.1-4.6-3.4-6.1c3.7-0.9-14-1.3-17.5-2.8c-0.5-0.2,1.2-0.9,0.7-1.2c-0.8-0.2-1.6-0.4-2.4-0.7 c-4.4-1.5-8.4-4-12.6-6c-4.3-2-8.6-3.8-12.9-5.7c-2.3-0.4-4.5-0.8-6.7-1.2c-5.6-1.2-11.1-2.4-16.6-4.1c-9.4-3-19.2-3.4-28.2-7.4 c-2.3,0.2-4.6,0.3-6.9,0.3c-9.7,0-19.4-1.4-28.6-5.4c-4.4-0.1-8.7,0.1-13,0.6c0.1,0,0.1,0.1,0.2,0.1c-12.6-2.8-25.5-2.4-38.1-1.9 c-4.1,0.2-8.4,0.3-12.1,1.7c5.4,1.4,10.8,1.1,16.2,0.9c3.6,0,7.2,0,10.8,0.4c-8.8,0.3-17.5,0.7-26,1.3c-6.6-0.9-13,1.2-19.5,0 c-2.3-0.4-4.7-1.3-6.9-0.8c-1.1,0.2-2.1,0.7-3.1,1.1c-4.9,1.8-10.6,1-16,1.7c-0.8,0.1-1.6,0.8-1.1,1.3c0.2,0.1,0.5,0.2,0.7,0.3 c0.4,0.1,0.7,0.1,1.1,0.2c-6.8,0.7-13.2,1.5-19,2.3c-1.4-0.3-2.8-0.5-4.1-0.8c-1.8-0.3-3.6-0.7-5.3-0.5c-2.8,0.2-5.3,1.6-7.9,2.5 c-2.4,0.8-5,1.2-7.3,2c-1.5,0.5-3,1.4-4,2.6c-0.6,0.4-0.9,0.9-0.8,1.4c-0.1,0.3-0.2,0.5-0.3,0.8l0.6-0.1c1,1.3,4,3,8.2,5.2 c2.3,2.7,4.9,5.2,7.6,7.5c1.5,1.2,3,2.4,4.7,3.2c1.5,0.7,3,1,4.5,1.6c2.1,0.8,3.9,2,5.8,3.2c3.4,2.2,6.7,4.3,10.1,6.5l-21.8-15.9 c1.9,1.1,3.8,2.4,5.8,3.7c12.9,8.6,27.3,18.3,50.1,29.1c0.3,0.4,0.6,0.8,1,1.1c0.8,0.6,1.9,0.9,2.9,1.1c0.8,0.2,1.5,0.4,2.3,0.7 c14.3,6.5,31.6,13.4,53.5,20.8c5,1.7,10.2,3.4,15.4,5.1c0,0-22.2-6.2-24.3-6.1l7.9,2.3h0.1c4.1,2,28.9,7.5,32.8,8.8 c49.3,17,55.6,11.9,64.6,15.7c6.8,2.9,16.9,4,26.8,4.4c0-0.4,0.1-0.7,0.2-1.1c5.1,0.5,16.2,0.7,19.8-1.6c4.2-2.6,7.3-3.7,11.9-6.4 s2.2-4.2,4.9-8.7C470,215.8,475.7,212.6,480.9,205.8L480.9,205.8z"/>
	<path class="st3" d="M405.1,272.2c-55.6-8.7-228-114.5-231.2-115.4c8.4,28.2,78.6,74.6,113.3,95c1.2-1.4,2.5-7.2,4.7-9.8 c6.3,4.6,19.8,14.8,18.8,14.3c-1.7,1.1-2,3.8-4.6,5.5c5.7,2.9,3.1,2.4,8.6,4.9c7.4-14.3,6.8-13.6,15.9-9.1 c10.2,5.1,4.3,7.2,2.5,9.4c-0.6,0.7-3,4.7-3.2,4.9c31.9,13.1,61.2,19.5,89.3,20.7c37.5,1.5,58-1.4,85.8-31.5 C479.7,269.1,456.8,280.2,405.1,272.2z"/>
</svg>
