<?xml version="1.0" encoding="utf-8"?>
<!-- Generator: Adobe Illustrator 22.0.1, SVG Export Plug-In . SVG Version: 6.00 Build 0)  -->
<svg version="1.1" id="Warstwa_1" xmlns="http://www.w3.org/2000/svg" xmlns:xlink="http://www.w3.org/1999/xlink" x="0px" y="0px"
	 width="574.9px" height="338.9px" viewBox="0 0 574.9 338.9" style="enable-background:new 0 0 574.9 338.9;" xml:space="preserve"
	>
<style type="text/css">
	.st0{fill:#F9F878;stroke:#000000;stroke-miterlimit:10;}
	.st1{fill: #c7e3ff;}
	.st2{fill:#F9F878;}
	.st3{fill:#13D454;stroke:#000000;stroke-miterlimit:10;}
</style>
<g>
	<path d="M354.7,289.8c-5.5-5.9-19.7-24.2-25.3-30.1l-10.1,9.4c7.3,5.6,15.2,10.2,22.9,15.3C350,289.7,354.7,289.8,354.7,289.8"/>
	<path d="M559.1,141.1c-2.6-16.1-21.5-39.6-38.6-47.9c-13.7-6.3-29.5-6-44.5-5.8c-3.5,0.1-9.1-2.6-15.1-0.8
		c-10.5,3.2-80.7,6.6-198.5,43.9c-8.7,2.8-52.2,13.6-80.4,17.4c-20.1,2.6-68.4,9.3-68.4,9.3c-42.7,4.5-73.2,5.4-96.8,9.2
		C11,167.2,5.4,168.1,0,167c4.3,12.4,8.6,0.8,21.6,17.9c38.8,9.8,83.7,7.6,121.4,14.1c0,0,110.7,49.6,139.1,49.5
		c-1,6.8-1.9,17.3-2.6,22.4c-0.1,0.8-0.2,1.7-0.4,2.5c10.5,6.8,22.2-18.2,25.8-27.2c5.7-0.4,9.3,20.8,9.3,20.8s5-1.2,6.1-1.6
		s133.5-33.7,133.5-33.7s34.5-42.4,36.2-45c1.5-2.3,4.7-2.4,6.4-0.3c1.6,2.1,4.3,5.1,10.1,8.6c16.7,10.1,33.2,8,35.1,5.7
		C560.6,177.2,561.7,157.1,559.1,141.1z"/>
	<path class="st0" d="M389.6,307.2c-1.5-15-25.8-22.1-37.7-21c1.4,1.1,2.8,2.5,3.9,3.9c0-0.6-0.1-1.1-0.2-1.7
		c4.6,1.9,33,13.5,31.7,20.6c-0.5-0.3-0.9-0.6-1.4-0.9c0.4,1,0.9,2,1.3,2.9C388.7,310.3,389.9,308.8,389.6,307.2L389.6,307.2z"/>
	<path class="st0" d="M383.7,306.2c-0.4-0.9-1.1-1.6-2-2c-0.1,1-0.3,1.6-0.7,2.1c-0.2,0.7-0.5,1.2-0.9,1.7c-0.5,1.1-1.2,2.4-1.7,3.7
		c-0.4,1.3-0.9,2.6-1.2,4c-0.1,0.8-0.2,1.5-0.3,2.3v0.3v0.2c0.1,0.2,0.1,0.2,0.2,0.3c0,0.1,0.1,0.1,0.1,0.2c0,0,0.1,0.1,0.1,0.2
		s-0.1,0.1-0.1,0.1s-0.1,0-0.1-0.1v-0.1h0.1c0-0.1,0-0.1-0.1-0.2s-0.2,0-0.3,0c-0.2,0-0.3,0.1-0.4,0.3v0.4c0,0.2,0.2,0.3,0.3,0.4
		c0.2,0.2,0.5,0.2,0.8,0.2c0.5-0.1,0.9-0.3,1.1-0.4c0.1,0,0.2-0.1,0.3-0.2l0.2-0.2c0.7-0.4,1.3-1,1.8-1.6c1.1-1.2,2-2.6,2.5-4.1
		c0.2-0.8,0.5-1.5,0.7-2.3c0.1-0.9,0.2-1.7,0.2-2.6C384.2,308,384.1,307,383.7,306.2L383.7,306.2z"/>
	<path class="st0" d="M347.6,288.3c-8.2-3.5-30.9,2.8-19.2,12.8c-0.8-7.5,7.1-9,14.2-9c-1.4,1.3-3.1,2.7-4.9,3.5
		c5.2,0.6,9.9-2.2,13.2-6L347.6,288.3L347.6,288.3z"/>
	<path class="st0" d="M366.4,294.1c-2.3,1.4,2.3,14.6,2.4,18c0.1,7.4-2.4,14.5-7,20.3C380.6,330.2,379.6,302.5,366.4,294.1z"/>
	<path d="M319,295.7c-0.5,0.4-0.9,0.8-1.4,1.2c-2.6-3.3-9.4-6.9-12.2-9.5c-2.5-2.2-10.3-11.6-14.9-12.6c-0.2-0.2-0.3-0.5-0.5-0.7
		c-0.2,0.2-0.3,0.4-0.4,0.6c-0.3,0-0.6,0.1-0.9,0.2c-0.8-0.1-1.7,0-2.5,0.2c1.1,0.1,2.2,0.6,3.3,1.3c1.5,6.9,22.9,19.9,28.1,22.2
		c0.5-0.5,0.8-0.9,0.8-1.4C318.7,296.8,318.9,296.2,319,295.7L319,295.7z"/>
	<path class="st0" d="M364.2,323.7c-0.5-0.5-1.1-0.9-1.6-1.4c1.9-12.3-36.2-23.5-42.5-25.1c-0.2,3.5,1.3,7.7,4.8,8.9
		c13.6,7.2,13,12.1,15.4,28.2c0.7-6.6,2.2-18-1.4-24.2c-0.4-0.7-1.2-1.4-2.1-2.1c11.5,4.6,24.6,11.6,19.2,18c0.3,0,0.6,0.1,0.9,0.1
		c-2.2,3.1-3.8,6.7-4.4,10.4c-1.9,0-3.9,0.1-5.9,0.2c2.5,0.5,4.4,0.5,5.8,0.2v0.1l0.2-0.1c4.8-1.2,4.5-6.6,10.9-12.5l0.3-0.3
		C364,324,364.1,323.8,364.2,323.7L364.2,323.7z"/>
	<path class="st0" d="M319.6,300.2c-11.6-6.9-26.2-4-38.5-0.9c0.4,0.7,0.7,1.4,1,2.1c-2.4-0.5-7.2,1.8-15.7,7.8
		c4.1-1,8.3-2.1,12.4-3.2c-1.4,8.3-1.6,16.2,0,24.7c1-1.2,1.9-3,1.8-4.5c-0.1,0.3-0.3,0.5-0.4,0.8c1.8-9.8,4.3-18,4-22.3
		C295.9,301.6,307.8,299.2,319.6,300.2L319.6,300.2z M283.7,304.8c-1,1-1.8,1-2.4,0.5C282.1,305.1,282.9,304.9,283.7,304.8
		L283.7,304.8z"/>
	<g>
		<path class="st1" d="M522.1,152.6c-4.7,10.3,5.3,30,13.5,16.8c3.8-6.1-1.8-14.8-8-19.1C524.9,148.5,523.1,150.4,522.1,152.6z"/>
		<g>
			<path class="st0" d="M533.9,195.4c-0.1,0.6,10.2,3.9,9.9,1.6c0.7,2.1,7.5,28.3,7.5,28.3s-3.8-2.2-6.1-4.1c-6-5-9.1-14.9-9.9-17.5
				C534.8,202.3,533.5,196.8,533.9,195.4z"/>
			<path class="st0" d="M547.7,190.4c2.4,2.8,4.9,5.7,6.6,9.2c2.7,5.3,3.8,9.8,4.6,15.4c3,20.1-3.8,20.3-4.5,19.9
				c-0.3-0.2-1.1-1.6-1.1-1.6S542.9,200,542,196.6C543.3,199.9,549.8,193.4,547.7,190.4L547.7,190.4z"/>
		</g>
		<path class="st2" d="M549.9,178.2v2.2c0,0.7,0.1,1.5,0.1,2.2c0.1,0.7,0.3,1.4,0.4,2.2l0.3,1c0.1,0.3,0.2,0.7,0.4,1
			c1.1,2.6,3.7,4.3,6.3,4.1s5.1-1.7,7-3.6c1.9-2,3.4-4.4,4.3-7c1.9-5.2,2.2-11.1,1.3-16.6c-0.9-5.6-2.8-11.1-5.3-16.3l-0.2-0.5
			c-0.1-0.2-0.2-0.3-0.2-0.4l-0.4-0.8c-0.1-0.3-0.3-0.5-0.5-0.7s-0.3-0.5-0.5-0.6c-0.7-0.8-1.6-1.2-2.4-1.4
			c-0.9-0.2-1.8-0.2-2.8,0.1s-2,0.9-2.9,1.6s-1.8,1.6-2.4,2.6c-0.7,1-1.2,2-1.5,3.1s-0.5,2.2-0.4,3.3c0,0.3,0,0.5,0.1,0.8
			s0.1,0.5,0.1,0.8c0.2,0.5,0.3,1,0.6,1.5c0.4,1,1.2,1.9,1.9,2.8c0.4,0.4,0.9,0.8,1.3,1.2c0.5,0.4,1,0.8,1.5,1.1
			c0.6,0.3,1.1,0.7,1.7,1l1.8,0.9c0.6,0.3,1.3,0.5,1.9,0.7l0.5,0.2l0.2,0.1c0.1,0,0,0,0,0H562c-0.1,0-0.4-0.1-0.7,0
			c-0.3,0-0.6,0.2-0.9,0.3c-0.4,0.3-0.5,0.5-0.5,0.5s0.1-0.2,0.1-0.4c0.1-0.4,0.2-1,0.2-1.6c0.1-1.2,0-2.6-0.2-3.9
			c-0.3-2.7-0.9-5.5-1.7-8.2c-3-11-8.5-21.5-15.9-30c-7.5-8.5-17.4-15-28-19.3c-5.4-2.1-11-3.5-16.7-4.3c-5.7-0.7-11.6-0.7-17.2,0.4
			c-1.4,0.2-2.8,0.6-4.2,0.9c-0.3,0.1-0.7,0.2-1,0.3s-0.6,0.2-1,0.3c-0.6,0.2-1.2,0.5-1.7,0.9c-1,0.7-1.8,1.6-1.9,2.7
			c-0.2,1.1,0.3,2.3,1.2,3.2c1.8,2,4.7,2.9,7.6,2.9c1.4,0,2.9-0.2,4.3-0.5c1.4-0.4,2.8-0.9,4.2-1.5c-2.5,1.6-5.4,2.7-8.5,3
			c-3,0.3-6.4-0.3-9-2.6c-0.6-0.6-1.2-1.3-1.6-2.1s-0.6-1.8-0.6-2.7c0.1-1,0.4-1.9,0.9-2.7s1.1-1.5,1.8-2c1.4-1.1,3-1.8,4.4-2.2
			c1.5-0.4,2.9-1,4.4-1.3c6-1.5,12.2-2,18.4-1.6s12.3,1.7,18.1,3.7c5.9,2,11.5,4.7,16.7,8c5.2,3.4,10.1,7.3,14.4,11.9
			s7.8,9.8,10.7,15.3s5.3,11.2,7,17.3c0.8,3,1.5,6.1,1.8,9.3c0.2,1.6,0.3,3.3,0.2,5c-0.1,0.9-0.1,1.8-0.4,2.9
			c-0.1,0.5-0.3,1.1-0.6,1.8c-0.3,0.6-0.8,1.5-1.9,2.2c-0.5,0.4-1.2,0.6-1.9,0.7s-1.3,0-1.8-0.1l-0.4-0.1c-0.1,0-0.3-0.1-0.3-0.1
			l-0.3-0.1l-0.6-0.2c-0.8-0.3-1.5-0.6-2.3-0.9l-2.2-1.1c-0.7-0.4-1.4-0.9-2.2-1.3c-0.7-0.5-1.4-1-2.1-1.6s-1.3-1.2-1.9-1.8
			c-1.2-1.4-2.3-2.9-3-4.7c-0.4-0.8-0.6-1.8-0.9-2.7c-0.1-0.5-0.2-0.9-0.2-1.4c-0.1-0.5-0.1-0.9-0.1-1.4c-0.1-1.9,0.3-3.8,0.9-5.5
			c0.6-1.8,1.5-3.4,2.5-4.8c1.1-1.5,2.3-2.7,3.8-3.8s3.1-2,5-2.5s4-0.6,6,0s3.8,1.8,5.1,3.2c0.4,0.3,0.6,0.7,0.9,1.1
			s0.6,0.8,0.8,1.2l0.6,1.2l0.3,0.6l0.2,0.5c2.4,5.7,4.3,11.7,4.9,17.9s0,12.7-2.6,18.6c-1.3,2.9-3.2,5.6-5.7,7.7
			c-1.2,1.1-2.6,1.9-4.1,2.6s-3.1,1-4.8,1s-3.4-0.6-4.6-1.7c-0.2-0.1-0.3-0.2-0.5-0.4l-0.4-0.5c-0.3-0.3-0.6-0.6-0.8-1l-0.6-1
			l-0.4-1.1c-0.2-0.4-0.2-0.7-0.3-1.1L550,185c-0.1-0.8-0.1-1.5-0.2-2.3c0-0.8,0-1.5,0.1-2.3L549.9,178.2L549.9,178.2z"/>
		<path d="M523.7,164.2l0.4,0.4c0.2,0.2,0.8,0.6,0,0c0.2,0.2,0.3,0.5,0.5,0.7s0.3,0.5,0.4,0.7c0.2,0.4,0.2,0.3-0.1-0.2
			c0,0.1,0.1,0.2,0.1,0.3c0,0.9,0.1-0.7,0.1,0.1v-0.3c0.1-0.3,0.3-0.6,0.5-0.8c-1.2,1.5-1.5,3.6,0,5.1c1.3,1.3,3.8,1.5,5.1,0
			c3-3.7,0.9-8.1-2-11.1c-1.3-1.4-3.7-1.4-5.1,0C522.3,160.5,522.4,162.8,523.7,164.2z"/>
	</g>
	<path class="st3" d="M409.1,227.5C353.7,239.2,146.2,198.7,143,199c17.2,27.4,96.5,49.9,136,58.9c0.7-2,2.3-7.5,3.6-11.1
		c7.5,2.6,21.1,5.1,20,5c-1.2,1.9-3.2,7.7-5.1,10.4c6.3,1,10.2,0.6,16.2,1.3c2.3-18.3,3.8-14.2,10.6-14.5c21-0.7,10.2,4.8,4,15.8
		c34.5,2.1,64.2-2.1,91.1-11.4c35.9-12.6,54.3-23.5,70.6-66.8C468.6,205,460.5,216.6,409.1,227.5L409.1,227.5z"/>
	<path class="st0" d="M449.2,123.8c2-8.3-8.4-4.9-11.7-9.1c-1-1.3-3.4-2.5-6.2-3.5c0.2-0.7,0.4-1.5,0.2-1.9
		c-0.7-1.2-4.2-1.8-5.5-2.5c-2.7-1.3-4.6-3.2-4.4-6c0.1-1.1,0.8-2.3,0.6-3.4c-0.3-1.7,0.5-0.4-0.7-1.4c-0.7-0.6-2.5-0.9-3.4-1.3
		c-1.4-0.6-2.2-1.5-2.5-2.6c-6.9,0.4-11.1-0.2-5.6-4.3c3.1-2.3-13.4,4.4-17.2,4.3c-0.6,0,0.8-1.3,0.2-1.3c-0.8,0.1-1.6,0.3-2.5,0.3
		c-4.7,0.4-9.3-0.4-14-0.5s-9.4-0.1-14.1-0.2c-2.2,0.5-4.4,1.1-6.7,1.5c-5.6,1.1-11.2,2.2-16.9,2.8c-9.8,1-19,4.4-28.8,4.3
		c-2,1.1-4.1,2.1-6.2,3c-8.9,3.9-18.4,6.4-28.4,6.4c-4,1.7-7.9,3.6-11.7,5.7h0.2c-12.6,2.4-24.3,7.9-35.8,13.3
		c-3.7,1.8-7.6,3.6-10.5,6.3c5.5-0.9,10.3-3.3,15.3-5.6c3.3-1.4,6.6-2.9,10-3.9c-7.9,3.8-15.8,7.6-23.4,11.4
		c-6.4,1.8-11.4,6.3-17.9,7.8c-2.3,0.5-4.8,0.7-6.7,2c-0.9,0.6-1.6,1.5-2.4,2.2c-3.8,3.5-9.4,5.1-14,7.9c-0.7,0.4-1.2,1.3-0.5,1.6
		h0.7c0.4-0.1,0.7-0.2,1.1-0.3c-6,3.4-11.5,6.6-16.6,9.7c-1.4,0.3-2.7,0.6-4.1,0.9c-1.7,0.4-3.6,0.8-5.1,1.6
		c-2.5,1.3-4.2,3.6-6.3,5.4c-1.8,1.7-4.1,3-5.9,4.7c-1.2,1.1-2.2,2.5-2.6,4c-0.4,0.6-0.5,1.2-0.2,1.6c0,0.3,0,0.6,0.1,0.9l0.5-0.3
		c1.4,0.8,4.8,1.2,9.6,1.6c3.2,1.6,6.5,2.8,9.9,3.9c1.8,0.5,3.7,1,5.6,1.1c1.6,0,3.2-0.2,4.8-0.3c2.3-0.1,4.4,0.2,6.6,0.7
		c4,0.7,7.9,1.3,11.8,2l-26.4-6c2.2,0.3,4.5,0.7,6.8,1.1c15.3,2.8,32.3,6,57.6,6.9c0.4,0.2,0.9,0.4,1.4,0.6c1,0.2,2.1,0.1,3.1-0.1
		l2.4-0.3c15.7,0.3,34.4-0.2,57.4-2.1c5.3-0.4,10.7-0.9,16.2-1.5c0,0-22.8,3.1-24.7,4l8.1-1h0.1c4.6,0.2,29.5-4.6,33.7-4.9
		c52-3.9,55.8-11.1,65.6-11.1c7.3,0,17.1-3,26.3-6.6c-0.1-0.3-0.2-0.7-0.2-1.1c4.9-1.5,15.1-5.8,17.6-9.3c2.8-4,5.3-6.3,8.4-10.6
		s0.4-4.7,1-9.9C443.2,137.3,447.2,132.2,449.2,123.8L449.2,123.8z"/>
</g>
</svg>
