<svg xmlns="http://www.w3.org/2000/svg" viewBox="0 0 594 338.9">
<style type="text/css">
.st0{fill:#F9F878;stroke:#000000;stroke-miterlimit:10;}
.st1{fill:none;}
.st2{fill:#F9F878;}
.st3{fill: #c7e3ff;}
.st4{fill:#13D454;stroke:#000000;stroke-miterlimit:10;}
</style>
<path d="M354.3,290.3c-5.5-5.9-17.4-22.7-23-28.5l-12.9,5.6c7.3,5.6,15.7,12.5,23.4,17.6C349.6,290.2,354.3,290.3,354.3,290.3"/>
<path class="st0" d="M389.2,307.7c-1.5-15-25.8-22.1-37.7-21c1.4,1.1,2.8,2.5,3.9,3.9c0-0.6-0.1-1.1-0.2-1.7 c4.6,1.9,33,13.5,31.7,20.6c-0.5-0.3-0.9-0.6-1.4-0.9c0.4,1,0.9,2,1.3,2.9C388.3,310.8,389.5,309.4,389.2,307.7L389.2,307.7z"/>
<path class="st0" d="M383.3,306.7c-0.4-0.9-1.1-1.6-2-2c-0.1,1-0.3,1.6-0.7,2.1c-0.2,0.7-0.5,1.2-0.9,1.7c-0.5,1.1-1.2,2.4-1.7,3.7 c-0.4,1.3-0.9,2.6-1.2,4c-0.1,0.8-0.2,1.5-0.3,2.3v0.3v0.2c0.1,0.2,0.1,0.2,0.2,0.3c0,0.1,0.1,0.1,0.1,0.2c0,0,0.1,0.1,0.1,0.2 s-0.1,0.1-0.1,0.1s-0.1,0-0.1-0.1v-0.1h0.1c0-0.1,0-0.1-0.1-0.2s-0.2,0-0.3,0c-0.2,0-0.3,0.1-0.4,0.3v0.4c0,0.2,0.2,0.3,0.3,0.4 c0.2,0.2,0.5,0.2,0.8,0.2c0.5-0.1,0.9-0.3,1.1-0.4c0.1,0,0.2-0.1,0.3-0.2l0.2-0.2c0.7-0.4,1.3-1,1.8-1.6c1.1-1.2,2-2.6,2.5-4.1 c0.2-0.8,0.5-1.5,0.7-2.3c0.1-0.9,0.2-1.7,0.2-2.6C383.9,308.6,383.8,307.6,383.3,306.7L383.3,306.7z"/>
<path class="st0" d="M347.2,288.8c-8.2-3.5-30.9,2.8-19.2,12.8c-0.8-7.5,7.1-9,14.2-9c-1.4,1.3-3.1,2.7-4.9,3.5 c5.2,0.6,9.9-2.2,13.2-6L347.2,288.8L347.2,288.8z"/>
<path class="st0" d="M366.1,294.7c-2.3,1.4,2.3,14.6,2.4,18c0.1,7.4-2.4,14.5-7,20.3C380.2,330.8,379.2,303,366.1,294.7z"/>
<path d="M318.6,296.3c-0.5,0.4-0.9,0.8-1.4,1.2c-2.6-3.3-9.6-8-12.4-10.6c-2.5-2.2-4.8-10.6-9.3-11.6c-0.2-0.2-6.1-0.2-6.2,0.1 c-0.3,0-2.6,0.2-3.4,0.5c1.1,0.1,2.2,0.6,3.3,1.3c1.5,6.9,22.9,19.9,28.1,22.2C317.7,298.8,318.5,296.8,318.6,296.3z"/>
<path class="st0" d="M363.8,324.2c-0.5-0.5-1.1-0.9-1.6-1.4c1.9-12.3-36.2-23.5-42.5-25.1c-0.2,3.5,1.3,7.7,4.8,8.9 c13.6,7.2,13,12.1,15.4,28.2c0.7-6.6,2.2-18-1.4-24.2c-0.4-0.7-1.2-1.4-2.1-2.1c11.5,4.6,24.6,11.6,19.2,18c0.3,0,0.6,0.1,0.9,0.1 c-2.2,3.1-3.8,6.7-4.4,10.4c-1.9,0-3.9,0.1-5.9,0.2c2.5,0.5,4.4,0.5,5.8,0.2v0.1l0.2-0.1c4.8-1.2,4.5-6.6,10.9-12.5l0.3-0.3
	C363.6,324.5,363.7,324.4,363.8,324.2L363.8,324.2z"/>
<path class="st0" d="M319.2,300.7c-11.6-6.9-26.2-4-38.5-0.9c0.4,0.7,0.7,1.4,1,2.1c-2.4-0.5-7.2,1.8-15.7,7.8 c4.1-1,8.3-2.1,12.4-3.2c-1.4,8.3-1.6,16.2,0,24.7c1-1.2,1.9-3,1.8-4.5c-0.1,0.3-0.3,0.5-0.4,0.8c1.8-9.8,4.3-18,4-22.3
	C295.5,302.2,307.4,299.8,319.2,300.7L319.2,300.7z M283.3,305.3c-1,1-1.8,1-2.4,0.5C281.7,305.6,282.5,305.4,283.3,305.3z"/>
<path d="M486.8,26.7c-9.8-13-43.1-24.6-62.1-23.8c-15.1,0.9-28.8,8.5-42,15.8c-3,1.7-9.3,2-13.7,6.5c-7.7,7.7-68.1,43.8-154.6,132 c-6.4,6.5-39.7,36.6-62.8,53.1c-16.5,11.8-56,40.3-56,40.3c-35.5,24.1-62.1,39.2-81.1,53.6c-4.6,3.4-9.1,6.9-14.4,8.5 c9.6,8.9,8-3.3,27.4,5.7c38.9-9.6,77.4-32.7,113.8-44.6c0,0,121-8.3,146-21.7c2.3,6.5-3.2,15.4-1.5,23.6 c16.9,4.2,21.6-26.8,20.6-36.4c4.8-3.1,11.6,25.5,11.6,25.5s22,3.4,14.5-20.3c-0.3-1.1,98.5-88,98.5-88s10.5-53.6,10.8-56.8 c0.2-2.7,3-4.4,5.5-3.3c2.4,1.1,11.1,0.8,17.8,1.2c19.5,1.1,29-13.1,29.6-16.1C500.5,51.9,496.6,39.7,486.8,26.7L486.8,26.7z"/>
<g>
	<path class="st1" d="M452.5,46.2c1.4,11.2,20.2,22.9,20.3,7.3c0-7.2-9.3-11.7-16.8-12.1C452.7,41.2,452.2,43.8,452.5,46.2z"/>
	<path class="st0" d="M484.9,76.5c0.3,0.6,10.7-2,9.3-3.8c1.7,1.4,21.2,20.2,21.2,20.2s-4.4,0.1-7.3-0.3 c-7.7-1.1-15.6-7.9-17.6-9.8C489.3,81.9,485.3,78,484.9,76.5L484.9,76.5z"/>
	<path class="st0" d="M494,65c3.6,1.2,7.1,2.3,10.5,4.4c5,3.1,8.4,6.4,12,10.7c13.1,15.5,7.3,19.3,6.5,19.3 c-0.4,0-1.7-0.8-1.7-0.8s-26.3-23-28.9-25.4C495.2,75.4,497.4,66.6,494,65z"/>
	<path class="st2" d="M489.6,53.5l1.1,1.9c0.4,0.6,0.9,1.2,1.3,1.8c0.5,0.6,1,1.1,1.5,1.6l0.8,0.7c0.3,0.2,0.5,0.5,0.9,0.6 c2.3,1.6,5.4,1.8,7.5,0.2c2.2-1.6,3.5-4.1,4.1-6.8s0.6-5.5,0-8.3c-1.1-5.5-3.9-10.6-7.6-14.9s-8.2-8-13-11.1l-0.4-0.3 c-0.1-0.1-0.3-0.1-0.4-0.2l-0.8-0.4c-0.3-0.1-0.5-0.2-0.8-0.3s-0.5-0.2-0.8-0.2c-1-0.3-2-0.2-2.8,0.1s-1.7,0.8-2.4,1.6 s-1.3,1.8-1.7,2.9s-0.7,2.3-0.7,3.5c-0.1,1.2,0,2.4,0.3,3.5s0.7,2.2,1.4,3c0.1,0.2,0.3,0.5,0.5,0.6c0.2,0.2,0.3,0.4,0.5,0.6 c0.4,0.3,0.8,0.7,1.3,1c0.9,0.6,2,1,3.1,1.4c0.6,0.1,1.2,0.3,1.8,0.4c0.6,0,1.2,0.1,1.9,0.2h1.9l2-0.2c0.7-0.1,1.3-0.2,2-0.3 l0.5-0.1h0.3c0.1,0,0,0,0,0h-0.1c-0.1,0-0.4,0.2-0.6,0.4s-0.5,0.5-0.6,0.7c-0.2,0.5-0.2,0.7-0.2,0.7s0-0.2-0.1-0.4 c-0.1-0.4-0.4-0.9-0.7-1.4c-0.6-1.1-1.4-2.2-2.2-3.2c-1.7-2.2-3.7-4.2-5.7-6.1c-8.3-7.8-18.4-13.9-29.2-17.3 c-10.9-3.4-22.7-3.8-34-1.8c-5.7,1-11.2,2.7-16.5,5.1s-10.2,5.5-14.5,9.3c-1.1,0.9-2.1,2-3.1,3l-0.8,0.8 c-0.2,0.3-0.4,0.5-0.6,0.8c-0.4,0.5-0.8,1.1-1,1.6c-0.5,1.1-0.7,2.3-0.3,3.3c0.4,1,1.4,1.8,2.7,2.1c2.5,0.7,5.5,0,8-1.5 c1.2-0.7,2.4-1.7,3.4-2.7c1-1.1,2-2.2,2.8-3.4c-1.4,2.7-3.2,5.2-5.7,7s-5.6,3.1-9,2.5c-0.8-0.2-1.7-0.5-2.4-1 c-0.8-0.5-1.4-1.2-1.9-2s-0.7-1.8-0.7-2.7s0.2-1.8,0.5-2.6c0.6-1.6,1.6-3.1,2.6-4.2s2-2.4,3.1-3.5c4.3-4.4,9.4-8.1,14.9-11 s11.4-4.9,17.4-6.3s12.2-2,18.5-1.9c6.2,0.1,12.4,1,18.5,2.7c6,1.7,11.8,4.3,17.1,7.4c5.4,3.1,10.4,6.8,15,11.1 c2.3,2.2,4.4,4.4,6.4,7c1,1.3,1.9,2.6,2.8,4.2c0.4,0.8,0.8,1.6,1.2,2.7c0.2,0.5,0.3,1.1,0.4,1.8c0,0.7,0.1,1.7-0.5,2.8 c-0.3,0.6-0.7,1.2-1.2,1.6s-1.1,0.7-1.6,0.9l-0.4,0.1c-0.1,0-0.3,0.1-0.3,0.1l-0.3,0.1l-0.6,0.1c-0.8,0.1-1.6,0.3-2.4,0.4 l-2.5,0.2H486c-0.9,0-1.7-0.2-2.6-0.2c-0.9-0.1-1.7-0.4-2.6-0.6c-1.7-0.6-3.5-1.3-5-2.4c-0.8-0.5-1.5-1.2-2.2-1.8 c-0.3-0.3-0.6-0.7-0.9-1.1s-0.6-0.8-0.8-1.2c-1.1-1.6-1.7-3.4-2.2-5.2c-0.4-1.8-0.5-3.6-0.4-5.4s0.5-3.6,1.2-5.2 c0.7-1.7,1.6-3.3,3-4.7c1.3-1.4,3.1-2.6,5.1-3.1c2-0.6,4.2-0.5,6,0.1c0.5,0.1,0.9,0.3,1.3,0.5s0.9,0.4,1.3,0.6l1.1,0.7 c0.2,0.1,0.4,0.2,0.6,0.4l0.5,0.3c5,3.6,9.7,7.8,13.5,12.8s6.6,10.9,7.4,17.2c0.4,3.2,0.2,6.4-0.8,9.5c-0.5,1.5-1.2,3-2.1,4.4 c-0.9,1.3-2.2,2.5-3.6,3.3c-1.4,0.9-3.2,1.2-4.8,1c-0.2,0-0.4,0-0.6-0.1l-0.6-0.2c-0.4-0.1-0.8-0.2-1.1-0.4l-1.1-0.6l-0.9-0.7 c-0.3-0.2-0.6-0.5-0.9-0.8l-0.8-0.8c-0.4-0.6-0.9-1.2-1.3-1.9s-0.8-1.3-1.1-2L489.6,53.5L489.6,53.5z"/>
	<path class="st3" d="M452,50.6c4.8,10.2,26.4,15.4,21.5,0.6c-2.3-6.8-12.5-8.2-19.8-6.2C450.7,45.8,451,48.6,452,50.6z"/>
	<path d="M459.8,55.2c0.2,0.1,0.4,0.1,0.6,0.2s0.4,0.2,0.6,0.2c0.4,0.1,0.5,0.4-0.3-0.1c0.1,0.1,0.3,0.1,0.4,0.2 c0.3,0.1,0.5,0.3,0.8,0.4c0.1,0.1,0.3,0.2,0.4,0.3c-0.2,0-0.7-0.6-0.2-0.2c0.1,0.1,0.2,0.3,0.3,0.3c-0.1,0-0.5-0.8-0.2-0.3 c0.2,0.4-0.3-0.9-0.2-0.3c0-0.2-0.1-0.4-0.1-0.6c0,0.4,0,0.2,0.1-0.5c-0.3,1.9,0.5,4,2.5,4.4c1.7,0.4,4.1-0.5,4.4-2.5 c0.2-1.6,0.1-2.9-0.7-4.3c-0.7-1.1-1.7-2-2.8-2.6c-1.2-0.7-2.5-1.2-3.8-1.6c-1.8-0.5-4,0.6-4.4,2.5 C456.9,52.7,457.9,54.7,459.8,55.2L459.8,55.2z"/>
</g>
<path class="st4" d="M389.5,173.9C346.1,210.2,144,272,141.2,273.8c28.1,16.1,107.6-0.3,146.7-10.9c-0.4-2.1,0.8-6.3-1.1-12.5 c7.9-1.2,21-5.4,20-5c-0.2,2.2-0.8,9.1-1.2,12.4c6.1-2.1,2.7-0.6,8.3-2.8c0.9-13,4.1-15,10.1-18.3c12.8-7.2,8.8-3.1,8.4,9.5 c31.4-14.3,58.9-33.3,78.3-54.2c25.8-28,36.8-46.3,31-92.1C431.5,126,429.8,140.1,389.5,173.9L389.5,173.9z"/>
<path class="st0" d="M385.2,69c-2-9.7-9.9-1.6-14.9-4.7c-1.5-0.9-4.2-1.2-7.2-1.1c-0.1-0.9-0.3-1.8-0.8-2.1c-1.2-1-4.7-0.2-6.1-0.3 c-3.1-0.2-5.6-1.4-6.8-4.5c-0.4-1.2-0.4-2.7-1-3.8c-1-1.7,0.3-0.6-1.3-1.2c-0.9-0.3-2.7,0.1-3.6,0c-1.5,0-2.7-0.7-3.5-1.7 c-6.1,3.3-10.2,4.5-7-2.1c1.7-3.7-10.1,10.3-13.6,11.9c-0.5,0.2,0.1-1.7-0.4-1.5c-0.7,0.5-1.3,1-2.1,1.4c-4.1,2.3-8.6,3.5-12.9,5.4 s-8.6,3.9-12.9,5.8c-1.8,1.5-3.5,3-5.3,4.5c-4.5,3.6-9.1,7-14,10c-8.4,5.2-15.1,12.7-24.1,16.7c-1.3,2-2.7,3.9-4.2,5.8 c-6.3,7.9-13.7,14.5-22.8,18.7c-2.9,3.5-5.6,7.1-8,11c0.1,0,0.1,0,0.2-0.1c-10.3,7.9-18.4,18.6-26.2,29.2c-2.6,3.5-5.2,7-6.5,11.1 c4.6-3.2,7.8-7.8,11.3-12.3c2.3-2.9,4.6-5.8,7.3-8.4c-5.4,7.3-10.8,14.7-15.9,22c-4.9,4.6-7.5,11.5-12.6,15.8 c-1.8,1.5-4.1,2.8-5.2,4.9c-0.6,1.1-0.8,2.2-1.2,3.4c-1.8,5.3-6.1,9.4-9,14.2c-0.4,0.7-0.4,1.9,0.3,1.9c0.3-0.1,0.5-0.2,0.6-0.3 c0.3-0.2,0.6-0.5,0.9-0.7c-3.8,6.1-7.4,11.8-10.5,17.2l-3.3,2.7c-1.4,1.2-2.9,2.3-3.8,3.8c-1.7,2.5-2.2,5.6-3.1,8.4 c-0.9,2.6-2.3,4.9-3.2,7.5c-0.6,1.7-0.8,3.6-0.5,5.3c-0.1,0.9,0.1,1.4,0.5,1.8c0.1,0.3,0.3,0.6,0.5,0.9l0.4-0.5 c1.7,0.3,4.9-0.8,9.4-2.4c3.6,0.3,7.2,0.2,10.8-0.1c1.9-0.2,3.8-0.5,5.6-1.3c1.5-0.6,2.8-1.6,4.2-2.3c2-1,4.1-1.6,6.3-2.1 c3.9-1,7.8-2,11.6-2.9l-26.7,4.8c2.1-0.6,4.3-1.2,6.7-1.7c15.2-3.5,32.1-7.4,55.4-17.1c0.5,0.1,1,0.1,1.5,0c1-0.2,1.9-0.8,2.7-1.4 c0.7-0.5,1.3-0.9,2-1.3c14.4-6.3,31.1-14.8,51.1-26.5c4.6-2.7,9.3-5.5,14-8.4c0,0-19.2,13-20.6,14.7l6.9-4.5h0.1 c4.2-1.7,24.6-17.3,28.2-19.4c45.3-26.1,45.4-35.3,54.3-39.5c6.7-3.1,14.1-10.4,20.8-18.1c-0.3-0.3-0.5-0.7-0.7-1.1 c3.7-3.7,11-12.5,11.6-17.3c0.7-5.5,1.8-8.9,2.7-14.8c0.9-5.8-1.9-5.1-3.7-10.9C386,85.9,387.2,78.7,385.2,69L385.2,69z"/>
</svg>
