<svg xmlns="http://www.w3.org/2000/svg" viewBox="0 0 500 370">
    <style type="text/css">
        .st0 {fill: #F9F878;}
        .st1 {fill: #13D454;}
        .st0, .st1 {stroke: #000000; stroke-miterlimit: 10;}
        .st2 {fill: #a0d0ff;}
    </style>
    <path d="M434.7,88.4c2.6-0.6,6.4-1.8,12-5.6c16.1-11,21-26.9,19.7-29.6c-13.4-27.1-31.2-36.4-46.9-40.7c-15.7-4.3-45,3.2-59.6,15.3 c-11.4,9.9-17.7,24.3-23.7,38.1c-6,13.8-33.4,57.9-33.4,57.9s-6.8,2.1-35,16.2c-28.2,14.1-93.7,51.4-110.4,62.9 s-57.5,38.2-57.5,38.2c-36.4,22.7-63.5,36.8-83.1,50.5c-4.7,3.2-9.4,6.5-14.7,7.9c9.3,9.3,8.1-3,27.2,6.7 c39.2-8.1,78.6-29.7,115.4-40.3c0,0,55.9,14.8,110.3,14.6c-1,6.8-1.9,17.3-2.6,22.4c-0.1,0.8-0.2,1.7-0.4,2.5 c10.5,6.8,17.8-16.6,21.4-25.6c5.7-0.4,11.3-1.1,16.8-1.9c-0.9,6-3.1,21.1-3.1,21.1s5-1.2,6.1-1.6s7.4-5,8.3-7 c0.8-1.8,3.4-9.7,4-15.8c62.3-16.8,98.4-56.4,112.5-75.6c14.1-19.3,27.7-60,27.7-60s-0.4-0.9,0,0c7.3,14.8-2.6-27.9-13.3-44.8 C430.9,92.1,432.1,89,434.7,88.4z"/>
    <path d="M327.7,321.9c-5.5-5.9-19.7-24.2-25.3-30.1l-10.1,9.4c7.3,5.6,15.2,10.2,22.9,15.3C322.9,321.8,327.7,321.9,327.7,321.9"/>
    <path class="st0" d="M362.5,339.3c-1.5-15-25.8-22.1-37.7-21c1.4,1.1,2.8,2.5,3.9,3.9c0-0.6-0.1-1.1-0.2-1.7 c4.6,1.9,33,13.5,31.7,20.6c-0.5-0.3-0.9-0.6-1.4-0.9c0.4,1,0.9,2,1.3,2.9C361.6,342.4,362.9,341,362.5,339.3z"/>
    <path class="st0" d="M356.7,338.3c-0.4-0.9-1.1-1.6-2-2c-0.1,1-0.3,1.6-0.7,2.1c-0.2,0.7-0.5,1.2-0.9,1.7c-0.5,1.1-1.2,2.4-1.7,3.7 c-0.4,1.3-0.9,2.6-1.2,4c-0.1,0.8-0.2,1.5-0.3,2.3v0.3c0,0.1,0,0.1,0,0.2c0.1,0.2,0.1,0.2,0.2,0.3c0,0.1,0.1,0.1,0.1,0.2 c0,0,0.1,0.1,0.1,0.2c0,0.1-0.1,0.1-0.1,0.1s-0.1,0-0.1-0.1v-0.1h0.1c0-0.1,0-0.1-0.1-0.2c-0.1-0.1-0.2,0-0.3,0 c-0.2,0-0.3,0.1-0.4,0.3c0,0.1,0,0.2,0,0.4c0,0.2,0.2,0.3,0.3,0.4c0.2,0.2,0.5,0.2,0.8,0.2c0.5-0.1,0.9-0.3,1.1-0.4 c0.1,0,0.2-0.1,0.3-0.2l0.2-0.2c0.7-0.4,1.3-1,1.8-1.6c1.1-1.2,2-2.6,2.5-4.1c0.2-0.8,0.5-1.5,0.7-2.3c0.1-0.9,0.2-1.7,0.2-2.6 C357.2,340.2,357.1,339.2,356.7,338.3z"/>
    <path class="st0" d="M320.5,320.4c-8.2-3.5-30.9,2.8-19.2,12.8c-0.8-7.5,7.1-9,14.2-9c-1.4,1.3-3.1,2.7-4.9,3.5 c5.2,0.6,9.9-2.2,13.2-6L320.5,320.4z"/>
    <path class="st0" d="M339.4,326.3L339.4,326.3L339.4,326.3c-2.3,1.4,2.3,14.6,2.4,18c0.1,7.4-2.4,14.5-7,20.3 C353.6,362.4,352.5,334.6,339.4,326.3z"/>
    <path d="M291.9,327.9c-0.5,0.4-0.9,0.8-1.4,1.2c-2.6-3.3-9.4-6.9-12.2-9.5c-2.5-2.2-10.3-11.6-14.9-12.6c-0.2-0.2-0.3-0.5-0.5-0.7 c-0.2,0.2-0.3,0.4-0.4,0.6c-0.3,0-0.6,0.1-0.9,0.2c-0.8-0.1-1.7,0-2.5,0.2c1.1,0.1,2.2,0.6,3.3,1.3c1.5,6.9,22.9,19.9,28.1,22.2 c0.5-0.5,0.8-0.9,0.8-1.4C291.7,329,291.9,328.4,291.9,327.9z"/>
    <path class="st0" d="M337.2,355.8c-0.5-0.5-1.1-0.9-1.6-1.4c1.9-12.3-36.2-23.5-42.5-25.1c-0.2,3.5,1.3,7.7,4.8,8.9 c13.6,7.2,13,12.1,15.4,28.2c0.7-6.6,2.2-18-1.4-24.2c-0.4-0.7-1.2-1.4-2.1-2.1c11.5,4.6,24.6,11.6,19.2,18c0.3,0,0.6,0.1,0.9,0.1 c-2.2,3.1-3.8,6.7-4.4,10.4c-1.9,0-3.9,0.1-5.9,0.2c2.5,0.5,4.4,0.5,5.8,0.2c0,0,0,0,0,0.1l0.2-0.1c4.8-1.2,4.5-6.6,10.9-12.5 c0.1-0.1,0.2-0.2,0.3-0.3c0,0,0,0,0,0l0,0C336.9,356.1,337,356,337.2,355.8z"/>
    <path class="st0" d="M292.5,332.3c-11.6-6.9-26.2-4-38.5-0.9c0.4,0.7,0.7,1.4,1,2.1c-2.4-0.5-7.2,1.8-15.7,7.8 c4.1-1,8.3-2.1,12.4-3.2c-1.4,8.3-1.6,16.2,0,24.7c1-1.2,1.9-3,1.8-4.5c-0.1,0.3-0.3,0.5-0.4,0.8c1.8-9.8,4.3-18,4-22.3 C268.8,333.8,280.7,331.4,292.5,332.3z M256.6,336.9c-1,1-1.8,1-2.4,0.5C255,337.2,255.8,337,256.6,336.9 C256.6,336.9,256.6,336.9,256.6,336.9z"/>
    <path class="st1" d="M406.3,202.3C355.7,253,144.6,266,144.6,266c-3.1,0.9-6.2,1.9-9.3,2.9c24.1,6.5,78.1,19.7,118.6,19.7 c0.2-2.1,0.6-7.8,1-11.6c7.9,0.9,15.4,1.9,21.9,2.7c-1.1,0.1-2.3,0.2-3.4,0.3c-0.8,2.1-1.9,4.9-3.1,8c6.4-0.4,12.6-1,18.6-1.7 c0.2-1.7,0.5-3.3,0.7-4.8c8.8,1.3,14.1,2.2,13.9,2.8c34.1-5.6,62.1-16.3,86.3-31.4C422,232.6,442,197.1,443,146.6 C438.4,159.3,418.7,189.9,406.3,202.3z"/>
    <g id="dziob">
        <path class="st0" d="M452.4,61c0.5,0.4,8.6-6.7,6.5-7.6c2.2,0.5,28.1,8.3,28.1,8.3s-3.9,2.1-6.6,3c-7.4,2.5-17.5,0.1-20.2-0.6 C458.8,63.8,453.4,62.1,452.4,61z"/>
        <path class="st0" d="M455.3,46.6c3.7-0.6,7.4-1.2,11.3-0.9c5.9,0.5,10.4,1.9,15.6,4.1c18.7,7.8,15.3,13.8,14.6,14.2 c-0.3,0.2-1.9,0.1-1.9,0.1s-33.9-8.4-37.3-9.4C461.1,55.3,459,46.4,455.3,46.6z"/>
    </g>
    <path class="st0"
          d="M379.4,151c1.3-8.4-8.3-4.2-11.7-8.2c-1-1.2-3.4-2.2-6.1-3c0.2-0.7,0.3-1.5,0-1.9c-0.8-1.1-4.1-1.5-5.4-2 c-2.7-1.1-4.6-2.8-4.6-5.6c0-1.1,0.6-2.3,0.3-3.4c-0.4-1.7,0.5-0.4-0.8-1.4c-0.7-0.5-2.4-0.7-3.3-1c-1.3-0.5-2.2-1.4-2.6-2.4 c-6.5,0.9-10.5,0.7-5.6-3.8c2.7-2.5-12.4,5.3-16,5.6c-0.5,0,0.6-1.4,0.1-1.4c-0.7,0.2-1.5,0.4-2.3,0.5c-4.4,0.7-8.8,0.3-13.2,0.5 c-4.5,0.2-8.9,0.6-13.4,0.9c-2.1,0.7-4.1,1.4-6.2,2c-5.2,1.5-10.4,3-15.8,4c-9.2,1.7-17.6,5.8-27,6.4c-1.8,1.2-3.7,2.4-5.6,3.5 c-8.2,4.5-16.9,7.7-26.4,8.4c-3.7,1.9-7.3,4.1-10.7,6.5c0.1,0,0.1,0,0.2,0c-11.8,3.4-22.5,9.6-32.9,15.9c-3.4,2.1-6.9,4.1-9.5,7 c5.1-1.3,9.5-4,14-6.6c3-1.7,6-3.4,9.2-4.6c-7.2,4.3-14.4,8.7-21.3,13.1c-5.9,2.3-10.4,7.1-16.4,9c-2.1,0.7-4.5,1-6.2,2.5 c-0.9,0.7-1.4,1.6-2.1,2.4c-3.3,3.8-8.5,5.8-12.7,8.9c-0.6,0.5-1,1.4-0.3,1.7c0.3,0,0.5,0,0.7-0.1c0.3-0.1,0.7-0.2,1-0.3 c-5.4,3.8-10.4,7.4-15,10.8c-1.3,0.4-2.5,0.8-3.8,1.2c-1.6,0.6-3.3,1-4.7,2c-2.3,1.5-3.7,3.9-5.5,5.8c-1.6,1.8-3.7,3.3-5.3,5.1 c-1.1,1.2-1.9,2.6-2.2,4.1c-0.3,0.7-0.4,1.2-0.1,1.6c0,0.3,0.1,0.6,0.1,0.8l0.5-0.3c1.4,0.7,4.6,0.8,9.2,0.9 c3.1,1.3,6.4,2.3,9.7,3.1c1.8,0.4,3.6,0.7,5.4,0.6c1.5-0.1,3-0.5,4.5-0.6c2.1-0.2,4.2-0.1,6.3,0.2c3.8,0.4,7.6,0.7,11.3,1.1l-25.4-4 c2.1,0.1,4.3,0.3,6.5,0.6c14.6,1.7,31,3.5,55,2.5c0.4,0.2,0.9,0.4,1.3,0.5c0.9,0.2,2-0.1,2.9-0.3c0.7-0.2,1.5-0.3,2.2-0.5 c14.9-0.9,32.5-2.8,54.1-6.3c5-0.8,10.1-1.7,15.2-2.7c0,0-21.4,4.8-23.1,5.8l7.6-1.6c0,0,0.1,0,0.1,0c4.3-0.2,27.6-6.7,31.5-7.4 c48.9-7.7,52-15.1,61.3-15.9c7-0.6,16-4.2,24.4-8.5c-0.2-0.3-0.2-0.7-0.3-1.1c4.5-1.9,13.9-6.9,16-10.5c2.4-4.2,4.5-6.7,7.2-11.1 c2.7-4.5,0-4.7,0.3-9.9C374.6,164.8,378,159.4,379.4,151z"/>
    <path class="st0" id="włosy"
          d="M446.1,38.4l1.9,1.2c0.6,0.4,1.3,0.7,2,1c0.7,0.3,1.4,0.5,2,0.8l1.1,0.2c0.3,0.1,0.7,0.2,1.1,0.2 c2.8,0.4,5.6-0.9,6.8-3.3c1.2-2.4,1.3-5.3,0.6-7.9c-0.7-2.7-2-5.2-3.7-7.4c-3.5-4.4-8.3-7.6-13.6-9.7c-5.3-2.1-10.9-3.4-16.7-3.9 l-0.5-0.1c-0.2,0-0.3,0-0.5,0l-0.9,0c-0.3,0-0.6,0.1-0.8,0.1c-0.3,0-0.6,0-0.8,0.1c-1.1,0.2-1.9,0.7-2.5,1.3 c-0.6,0.6-1.1,1.5-1.4,2.5c-0.3,1-0.3,2.2-0.2,3.3c0.1,1.2,0.4,2.3,0.9,3.4c0.5,1.1,1.1,2.1,1.9,2.9c0.8,0.9,1.6,1.6,2.6,2.1 c0.2,0.1,0.5,0.3,0.7,0.3c0.3,0.1,0.5,0.2,0.8,0.3c0.5,0.1,1,0.3,1.6,0.3c1.1,0.2,2.2,0,3.4-0.2c0.6-0.2,1.2-0.3,1.7-0.5 c0.6-0.2,1.2-0.4,1.7-0.7c0.6-0.3,1.1-0.6,1.7-0.9l1.7-1.1c0.6-0.4,1.1-0.8,1.6-1.2l0.4-0.3l0.2-0.2c0.1,0,0,0,0,0 c0,0-0.1,0-0.1,0.1c-0.1,0.1-0.3,0.3-0.4,0.6c-0.1,0.3-0.2,0.6-0.2,0.9c0,0.5,0.2,0.7,0.1,0.7c0,0-0.1-0.1-0.2-0.3 c-0.3-0.3-0.7-0.6-1.2-1c-1-0.7-2.2-1.3-3.4-1.9c-2.5-1.1-5.2-2.1-7.9-2.8c-10.9-3.1-22.7-4-33.9-2c-11.2,2-21.9,7-31,13.9 c-4.6,3.5-8.7,7.5-12.3,12c-3.6,4.5-6.6,9.5-8.6,14.9c-0.5,1.3-0.9,2.7-1.4,4.1c-0.1,0.3-0.2,0.7-0.3,1c-0.1,0.3-0.2,0.7-0.2,1 c-0.1,0.6-0.2,1.3-0.2,1.9c0,1.2,0.4,2.4,1.3,3c0.8,0.7,2.1,0.9,3.4,0.7c2.6-0.5,4.9-2.5,6.4-5c0.8-1.2,1.4-2.6,1.8-4 c0.4-1.4,0.7-2.9,0.9-4.4c0,3-0.5,6-1.8,8.8c-1.3,2.7-3.6,5.3-6.9,6.3c-0.8,0.2-1.7,0.3-2.6,0.3c-0.9-0.1-1.8-0.4-2.6-0.9 c-0.8-0.5-1.4-1.3-1.9-2.1c-0.4-0.8-0.7-1.7-0.7-2.6c-0.2-1.7,0.1-3.5,0.4-4.9c0.4-1.5,0.7-3,1.2-4.5c1.8-5.9,4.7-11.5,8.2-16.5 c3.5-5.1,7.9-9.6,12.6-13.6c4.7-4,10-7.4,15.6-10.1c5.6-2.7,11.5-4.8,17.7-6.1c6.2-1.2,12.4-1.5,18.7-1.2c6.2,0.3,12.4,1.3,18.4,3 c3,0.9,6,1.9,8.9,3.3c1.5,0.7,2.9,1.5,4.4,2.5c0.7,0.5,1.5,1.1,2.2,1.8c0.4,0.4,0.8,0.8,1.2,1.5c0.4,0.6,0.8,1.5,0.9,2.7 c0,0.6-0.1,1.4-0.4,2c-0.3,0.6-0.6,1.1-1,1.5l-0.3,0.3c-0.1,0.1-0.2,0.2-0.2,0.2l-0.2,0.2l-0.5,0.4c-0.7,0.5-1.3,1-2,1.5l-2.1,1.3 c-0.7,0.4-1.5,0.8-2.3,1.2c-0.8,0.4-1.6,0.6-2.4,1c-0.8,0.3-1.7,0.5-2.6,0.7c-1.8,0.3-3.7,0.5-5.5,0.2c-0.9-0.1-1.9-0.4-2.8-0.6 c-0.5-0.2-0.9-0.4-1.3-0.5c-0.4-0.2-0.9-0.4-1.3-0.6c-1.7-0.9-3.1-2.2-4.3-3.6c-1.2-1.4-2.1-3-2.8-4.6c-0.7-1.7-1.1-3.4-1.3-5.2 c-0.1-1.8-0.1-3.7,0.5-5.6c0.5-1.9,1.6-3.7,3.1-5.1c1.5-1.4,3.5-2.3,5.4-2.6c0.5-0.1,0.9-0.1,1.4-0.2c0.5,0,0.9-0.1,1.4-0.1 l1.3,0.1c0.2,0,0.5,0,0.7,0.1l0.6,0.1c6.1,0.9,12.2,2.5,17.9,5.2c5.6,2.7,10.9,6.6,14.5,11.9c1.8,2.6,3.1,5.6,3.6,8.8 c0.3,1.6,0.3,3.2,0.1,4.8c-0.2,1.6-0.8,3.2-1.7,4.6c-0.9,1.4-2.3,2.5-3.8,3.1c-0.2,0.1-0.4,0.2-0.6,0.2l-0.6,0.1 c-0.4,0.1-0.8,0.2-1.2,0.1l-1.2,0l-1.2-0.2c-0.4-0.1-0.8-0.2-1.1-0.3l-1.1-0.4c-0.7-0.4-1.4-0.7-2-1.1c-0.6-0.4-1.3-0.8-1.9-1.3 L446.1,38.4z"/>
    <path class="st2" d="M410.3,51.6c7.9,8,30,5.7,20.5-6.6c-4.4-5.7-14.5-3.6-20.7,0.7C407.5,47.5,408.7,50,410.3,51.6z"/>
    <path d="M422.1,54.1c-1.6,0.7-0.5,0.2-0.1,0.1c0.5-0.2,1-0.3,1.5-0.4c0.5-0.1,0.6-0.1,0,0c0.3,0,0.7,0,1,0c-0.6,0-0.5-0.2,0,0 c-0.3-0.1-0.6-0.2-0.8-0.5c-0.3-0.5-0.4-0.5-0.2-0.2c1,1.7,3.3,2.3,4.9,1.3c1.7-1,2.3-3.2,1.3-4.9c-2.4-4.1-7.6-3.1-11.2-1.6 c-1.8,0.8-2.2,3.4-1.3,4.9C418.3,54.7,420.3,54.9,422.1,54.1L422.1,54.1z"/>
</svg>